<svg width="19" height="12" viewBox="0 0 19 12" fill="none" xmlns="http://www.w3.org/2000/svg">
<path d="M8.17031 5.4375C9.13906 4.9375 9.67031 4.21875 9.67031 3.125C9.67031 0.90625 8.01406 0.375 6.13906 0.375H0.920313V11.4375H6.26406C8.29531 11.4375 10.1703 10.4688 10.1703 8.21875C10.1703 6.84375 9.51406 5.8125 8.17031 5.4375ZM3.32656 2.25H5.63906C6.51406 2.25 7.29531 2.5 7.29531 3.53125C7.29531 4.46875 6.67031 4.84375 5.79531 4.84375H3.32656V2.25ZM5.95156 9.5625H3.32656V6.5H5.98281C7.07656 6.5 7.73281 6.96875 7.73281 8.09375C7.73281 9.21875 6.92031 9.5625 5.95156 9.5625ZM17.1391 2.03125V0.9375H12.6703V2.03125H17.1391ZM18.9203 7.5625C18.9203 5.1875 17.5141 3.1875 15.0141 3.1875C12.5453 3.1875 10.8891 5.03125 10.8891 7.4375C10.8891 9.9375 12.4828 11.6562 15.0141 11.6562C16.9203 11.6562 18.1703 10.7812 18.7641 8.96875H16.8266C16.6078 9.65625 15.7328 10 15.0766 10C13.7953 10 13.1078 9.25 13.1078 7.96875H18.8891C18.8891 7.84375 18.9203 7.6875 18.9203 7.5625ZM13.1078 6.5625C13.1703 5.53125 13.8891 4.875 14.9203 4.875C16.0453 4.875 16.6078 5.5 16.7016 6.5625H13.1078Z" fill="black"/>
</svg>
