<svg width="215" height="15" viewBox="0 0 215 15" fill="none" xmlns="http://www.w3.org/2000/svg">
<path d="M3.56757 7.9375C3.56757 7.51823 3.67044 7.13542 3.87617 6.78906C4.0819 6.44271 4.35664 6.16797 4.70039 5.96484C5.04674 5.75911 5.42955 5.65625 5.84882 5.65625C6.21341 5.65625 6.55065 5.73568 6.86054 5.89453C7.17044 6.05078 7.42695 6.26562 7.63007 6.53906C7.8332 6.8125 7.9569 7.11979 8.00117 7.46094H6.98554C6.93867 7.21875 6.80586 7.02083 6.5871 6.86719C6.37096 6.71094 6.12487 6.63281 5.84882 6.63281C5.60924 6.63281 5.39049 6.69141 5.19257 6.80859C4.99466 6.92578 4.8371 7.08333 4.71992 7.28125C4.60273 7.47656 4.54414 7.69531 4.54414 7.9375C4.54414 8.17708 4.60273 8.39583 4.71992 8.59375C4.8371 8.79167 4.99466 8.94922 5.19257 9.06641C5.39049 9.18359 5.60924 9.24219 5.84882 9.24219C6.12487 9.24219 6.36054 9.16536 6.55586 9.01172C6.75117 8.85547 6.87356 8.65625 6.92304 8.41406H7.93867C7.8944 8.75521 7.77591 9.0625 7.5832 9.33594C7.39049 9.60937 7.1444 9.82552 6.84492 9.98437C6.54544 10.1406 6.21341 10.2188 5.84882 10.2188C5.42955 10.2188 5.04674 10.1172 4.70039 9.91406C4.35664 9.70833 4.0819 9.43229 3.87617 9.08594C3.67044 8.73958 3.56757 8.35677 3.56757 7.9375ZM5.81367 12.0625C5.24596 12.0625 4.7121 11.9557 4.2121 11.7422C3.71471 11.5286 3.27591 11.2331 2.8957 10.8555C2.51809 10.4753 2.22122 10.0365 2.00507 9.53906C1.79153 9.04167 1.68606 8.50781 1.68867 7.9375C1.69127 7.36719 1.79934 6.83333 2.01289 6.33594C2.22903 5.83854 2.52591 5.40104 2.90351 5.02344C3.28112 4.64323 3.71862 4.34635 4.21601 4.13281C4.71341 3.91927 5.24596 3.8125 5.81367 3.8125C6.38398 3.8125 6.91783 3.91927 7.41523 4.13281C7.91523 4.34635 8.35273 4.64323 8.72773 5.02344C9.10533 5.40104 9.40091 5.83854 9.61445 6.33594C9.82799 6.83333 9.93606 7.36719 9.93867 7.9375C9.94127 8.50781 9.8358 9.04167 9.62226 9.53906C9.40872 10.0365 9.11315 10.4753 8.73554 10.8555C8.35794 11.2331 7.91914 11.5286 7.41914 11.7422C6.91914 11.9557 6.38398 12.0625 5.81367 12.0625ZM5.81367 11.0234C6.24075 11.0234 6.64179 10.944 7.01679 10.7852C7.39179 10.6263 7.71992 10.4062 8.00117 10.125C8.28502 9.84115 8.50638 9.51302 8.66523 9.14062C8.82408 8.76562 8.90221 8.36589 8.89961 7.94141C8.89961 7.51432 8.81888 7.11328 8.65742 6.73828C8.49856 6.36328 8.27721 6.03516 7.99336 5.75391C7.7121 5.47005 7.38528 5.2487 7.01289 5.08984C6.64049 4.93099 6.24075 4.85156 5.81367 4.85156C5.38919 4.85156 4.99075 4.93099 4.61835 5.08984C4.24596 5.2487 3.91783 5.47005 3.63398 5.75391C3.35273 6.03776 3.13138 6.36719 2.96992 6.74219C2.80846 7.11458 2.72773 7.51432 2.72773 7.94141C2.72513 8.36328 2.80325 8.76172 2.9621 9.13672C3.12356 9.50911 3.34492 9.83724 3.62617 10.1211C3.91002 10.4023 4.23815 10.6237 4.61054 10.7852C4.98554 10.944 5.38658 11.0234 5.81367 11.0234ZM23.4824 6.53906H22.2637C22.2168 6.27865 22.1296 6.04948 22.0019 5.85156C21.8743 5.65365 21.7181 5.48568 21.5332 5.34766C21.3483 5.20964 21.1413 5.10547 20.9121 5.03516C20.6855 4.96484 20.4447 4.92969 20.1894 4.92969C19.7285 4.92969 19.3158 5.04557 18.9512 5.27734C18.5892 5.50911 18.3027 5.84896 18.0918 6.29687C17.8835 6.74479 17.7793 7.29167 17.7793 7.9375C17.7793 8.58854 17.8835 9.13802 18.0918 9.58594C18.3027 10.0339 18.5905 10.3724 18.9551 10.6016C19.3197 10.8307 19.7298 10.9453 20.1855 10.9453C20.4381 10.9453 20.6777 10.9115 20.9043 10.8437C21.1335 10.7734 21.3405 10.6706 21.5254 10.5352C21.7103 10.3997 21.8665 10.2344 21.9941 10.0391C22.1243 9.84115 22.2142 9.61458 22.2637 9.35938L23.4824 9.36328C23.4173 9.75651 23.291 10.1185 23.1035 10.4492C22.9186 10.7773 22.6803 11.0612 22.3887 11.3008C22.0996 11.5378 21.7689 11.7214 21.3965 11.8516C21.0241 11.9818 20.6178 12.0469 20.1777 12.0469C19.485 12.0469 18.8678 11.8828 18.3262 11.5547C17.7845 11.224 17.3574 10.7513 17.0449 10.1367C16.735 9.52214 16.5801 8.78906 16.5801 7.9375C16.5801 7.08333 16.7363 6.35026 17.0488 5.73828C17.3613 5.1237 17.7884 4.65234 18.3301 4.32422C18.8717 3.99349 19.4876 3.82812 20.1777 3.82812C20.6022 3.82812 20.998 3.88932 21.3652 4.01172C21.735 4.13151 22.0671 4.30859 22.3613 4.54297C22.6556 4.77474 22.8991 5.05859 23.0918 5.39453C23.2845 5.72786 23.4147 6.10937 23.4824 6.53906ZM32.976 7.9375C32.976 8.79167 32.8197 9.52604 32.5072 10.1406C32.1947 10.7526 31.7663 11.224 31.2221 11.5547C30.6804 11.8828 30.0645 12.0469 29.3744 12.0469C28.6817 12.0469 28.0632 11.8828 27.5189 11.5547C26.9773 11.224 26.5502 10.7513 26.2377 10.1367C25.9252 9.52214 25.7689 8.78906 25.7689 7.9375C25.7689 7.08333 25.9252 6.35026 26.2377 5.73828C26.5502 5.1237 26.9773 4.65234 27.5189 4.32422C28.0632 3.99349 28.6817 3.82812 29.3744 3.82812C30.0645 3.82812 30.6804 3.99349 31.2221 4.32422C31.7663 4.65234 32.1947 5.1237 32.5072 5.73828C32.8197 6.35026 32.976 7.08333 32.976 7.9375ZM31.7807 7.9375C31.7807 7.28646 31.6752 6.73828 31.4643 6.29297C31.2559 5.84505 30.9695 5.50651 30.6049 5.27734C30.2429 5.04557 29.8327 4.92969 29.3744 4.92969C28.9135 4.92969 28.502 5.04557 28.14 5.27734C27.7781 5.50651 27.4916 5.84505 27.2807 6.29297C27.0723 6.73828 26.9682 7.28646 26.9682 7.9375C26.9682 8.58854 27.0723 9.13802 27.2807 9.58594C27.4916 10.0312 27.7781 10.3698 28.14 10.6016C28.502 10.8307 28.9135 10.9453 29.3744 10.9453C29.8327 10.9453 30.2429 10.8307 30.6049 10.6016C30.9695 10.3698 31.2559 10.0312 31.4643 9.58594C31.6752 9.13802 31.7807 8.58854 31.7807 7.9375ZM35.5809 11.9375V3.9375H38.4324C39.0548 3.9375 39.5704 4.05078 39.9793 4.27734C40.3881 4.50391 40.6941 4.8138 40.8973 5.20703C41.1004 5.59766 41.202 6.03776 41.202 6.52734C41.202 7.01953 41.0991 7.46224 40.8934 7.85547C40.6902 8.24609 40.3829 8.55599 39.9715 8.78516C39.5626 9.01172 39.0483 9.125 38.4285 9.125H36.4676V8.10156H38.3191C38.7124 8.10156 39.0314 8.03385 39.2762 7.89844C39.521 7.76042 39.7006 7.57292 39.8152 7.33594C39.9298 7.09896 39.9871 6.82943 39.9871 6.52734C39.9871 6.22526 39.9298 5.95703 39.8152 5.72266C39.7006 5.48828 39.5197 5.30469 39.2723 5.17188C39.0275 5.03906 38.7046 4.97266 38.3035 4.97266H36.7879V11.9375H35.5809ZM43.0998 3.9375H44.4709L46.5607 7.57422H46.6467L48.7365 3.9375H50.1076L47.2053 8.79687V11.9375H46.0021V8.79687L43.0998 3.9375ZM52.3473 11.9375V3.9375H55.1988C55.8186 3.9375 56.3329 4.04427 56.7418 4.25781C57.1532 4.47135 57.4605 4.76693 57.6637 5.14453C57.8668 5.51953 57.9684 5.95312 57.9684 6.44531C57.9684 6.9349 57.8655 7.36589 57.6598 7.73828C57.4566 8.10807 57.1493 8.39583 56.7379 8.60156C56.329 8.80729 55.8147 8.91016 55.1949 8.91016H53.0348V7.87109H55.0855C55.4762 7.87109 55.7939 7.8151 56.0387 7.70312C56.2861 7.59115 56.4671 7.42839 56.5816 7.21484C56.6962 7.0013 56.7535 6.74479 56.7535 6.44531C56.7535 6.14323 56.6949 5.88151 56.5777 5.66016C56.4631 5.4388 56.2822 5.26953 56.0348 5.15234C55.79 5.03255 55.4684 4.97266 55.0699 4.97266H53.5543V11.9375H52.3473ZM56.2965 8.32812L58.273 11.9375H56.898L54.9605 8.32812H56.2965ZM61.7441 3.9375V11.9375H60.5371V3.9375H61.7441ZM70.016 6.46484C69.9405 6.22786 69.8389 6.01562 69.7113 5.82812C69.5863 5.63802 69.4366 5.47656 69.2621 5.34375C69.0876 5.20833 68.8884 5.10547 68.6644 5.03516C68.4431 4.96484 68.1996 4.92969 67.934 4.92969C67.4835 4.92969 67.0772 5.04557 66.7152 5.27734C66.3532 5.50911 66.0668 5.84896 65.8559 6.29687C65.6475 6.74219 65.5434 7.28776 65.5434 7.93359C65.5434 8.58203 65.6488 9.13021 65.8598 9.57812C66.0707 10.026 66.3598 10.3659 66.7269 10.5977C67.0941 10.8294 67.5121 10.9453 67.9809 10.9453C68.4157 10.9453 68.7947 10.8568 69.1176 10.6797C69.4431 10.5026 69.6944 10.2526 69.8715 9.92969C70.0512 9.60417 70.141 9.22135 70.141 8.78125L70.4535 8.83984H68.1644V7.84375H71.309V8.75391C71.309 9.42578 71.1657 10.0091 70.8793 10.5039C70.5954 10.9961 70.2022 11.3763 69.6996 11.6445C69.1996 11.9128 68.6267 12.0469 67.9809 12.0469C67.2569 12.0469 66.6215 11.8802 66.0746 11.5469C65.5303 11.2135 65.1059 10.7409 64.8012 10.1289C64.4965 9.51432 64.3441 8.78516 64.3441 7.94141C64.3441 7.30339 64.4327 6.73047 64.6098 6.22266C64.7868 5.71484 65.0355 5.28385 65.3559 4.92969C65.6788 4.57292 66.0577 4.30078 66.4926 4.11328C66.9301 3.92318 67.4079 3.82812 67.9262 3.82812C68.3585 3.82812 68.7608 3.89193 69.1332 4.01953C69.5082 4.14714 69.8415 4.32812 70.1332 4.5625C70.4275 4.79687 70.671 5.07552 70.8637 5.39844C71.0564 5.71875 71.1866 6.07422 71.2543 6.46484H70.016ZM73.9412 11.9375V3.9375H75.1482V7.41406H79.1365V3.9375H80.3475V11.9375H79.1365V8.44922H75.1482V11.9375H73.9412ZM82.8107 4.97656V3.9375H89.0021V4.97656H86.5061V11.9375H85.3029V4.97656H82.8107Z" fill="#808080"/>
<path d="M98.4228 9.34375H99.6103L100.446 10.4336L100.841 10.918L102.173 12.6563H100.938L100.048 11.4961L99.7432 11.0742L98.4228 9.34375ZM102.431 7.9375C102.431 8.79167 102.274 9.52604 101.962 10.1406C101.649 10.7526 101.221 11.224 100.677 11.5547C100.135 11.8828 99.5192 12.0469 98.8291 12.0469C98.1364 12.0469 97.5179 11.8828 96.9736 11.5547C96.432 11.224 96.0049 10.7513 95.6924 10.1367C95.3799 9.52214 95.2236 8.78906 95.2236 7.9375C95.2236 7.08333 95.3799 6.35026 95.6924 5.73828C96.0049 5.1237 96.432 4.65234 96.9736 4.32422C97.5179 3.99349 98.1364 3.82812 98.8291 3.82812C99.5192 3.82812 100.135 3.99349 100.677 4.32422C101.221 4.65234 101.649 5.1237 101.962 5.73828C102.274 6.35026 102.431 7.08333 102.431 7.9375ZM101.235 7.9375C101.235 7.28646 101.13 6.73828 100.919 6.29297C100.711 5.84505 100.424 5.50651 100.06 5.27734C99.6976 5.04557 99.2874 4.92969 98.8291 4.92969C98.3682 4.92969 97.9567 5.04557 97.5947 5.27734C97.2327 5.50651 96.9463 5.84505 96.7353 6.29297C96.527 6.73828 96.4228 7.28646 96.4228 7.9375C96.4228 8.58854 96.527 9.13802 96.7353 9.58594C96.9463 10.0312 97.2327 10.3698 97.5947 10.6016C97.9567 10.8307 98.3682 10.9453 98.8291 10.9453C99.2874 10.9453 99.6976 10.8307 100.06 10.6016C100.424 10.3698 100.711 10.0312 100.919 9.58594C101.13 9.13802 101.235 8.58854 101.235 7.9375ZM111.985 7.9375C111.985 8.79167 111.829 9.52604 111.516 10.1406C111.204 10.7526 110.775 11.224 110.231 11.5547C109.689 11.8828 109.073 12.0469 108.383 12.0469C107.69 12.0469 107.072 11.8828 106.528 11.5547C105.986 11.224 105.559 10.7513 105.246 10.1367C104.934 9.52214 104.778 8.78906 104.778 7.9375C104.778 7.08333 104.934 6.35026 105.246 5.73828C105.559 5.1237 105.986 4.65234 106.528 4.32422C107.072 3.99349 107.69 3.82812 108.383 3.82812C109.073 3.82812 109.689 3.99349 110.231 4.32422C110.775 4.65234 111.204 5.1237 111.516 5.73828C111.829 6.35026 111.985 7.08333 111.985 7.9375ZM110.789 7.9375C110.789 7.28646 110.684 6.73828 110.473 6.29297C110.265 5.84505 109.978 5.50651 109.614 5.27734C109.252 5.04557 108.842 4.92969 108.383 4.92969C107.922 4.92969 107.511 5.04557 107.149 5.27734C106.787 5.50651 106.5 5.84505 106.289 6.29297C106.081 6.73828 105.977 7.28646 105.977 7.9375C105.977 8.58854 106.081 9.13802 106.289 9.58594C106.5 10.0312 106.787 10.3698 107.149 10.6016C107.511 10.8307 107.922 10.9453 108.383 10.9453C108.842 10.9453 109.252 10.8307 109.614 10.6016C109.978 10.3698 110.265 10.0312 110.473 9.58594C110.684 9.13802 110.789 8.58854 110.789 7.9375ZM117.179 11.9375H114.59V3.9375H117.262C118.045 3.9375 118.719 4.09766 119.281 4.41797C119.844 4.73568 120.275 5.19271 120.574 5.78906C120.876 6.38281 121.027 7.09505 121.027 7.92578C121.027 8.75911 120.875 9.47526 120.57 10.0742C120.268 10.6732 119.831 11.1341 119.258 11.457C118.685 11.7773 117.992 11.9375 117.179 11.9375ZM115.797 10.8828H117.113C117.722 10.8828 118.229 10.7682 118.633 10.5391C119.036 10.3073 119.338 9.97266 119.539 9.53516C119.739 9.09505 119.84 8.55859 119.84 7.92578C119.84 7.29818 119.739 6.76562 119.539 6.32812C119.341 5.89062 119.045 5.55859 118.652 5.33203C118.259 5.10547 117.771 4.99219 117.187 4.99219H115.797V10.8828ZM123.628 11.9375V3.9375H128.644V4.97656H124.835V7.41406H128.382V8.44922H124.835V10.8984H128.691V11.9375H123.628ZM132.563 3.9375V11.9375H131.356V3.9375H132.563ZM141.878 3.9375V11.9375H140.769L136.702 6.07031H136.628V11.9375H135.421V3.9375H136.538L140.608 9.8125H140.683V3.9375H141.878ZM144.344 4.97656V3.9375H150.536V4.97656H148.039V11.9375H146.836V4.97656H144.344ZM153.004 11.9375V3.9375H158.019V4.97656H154.211V7.41406H157.758V8.44922H154.211V10.8984H158.066V11.9375H153.004ZM160.732 11.9375V3.9375H163.583C164.203 3.9375 164.717 4.04427 165.126 4.25781C165.538 4.47135 165.845 4.76693 166.048 5.14453C166.251 5.51953 166.353 5.95312 166.353 6.44531C166.353 6.9349 166.25 7.36589 166.044 7.73828C165.841 8.10807 165.534 8.39583 165.122 8.60156C164.713 8.80729 164.199 8.91016 163.579 8.91016H161.419V7.87109H163.47C163.861 7.87109 164.178 7.8151 164.423 7.70312C164.67 7.59115 164.851 7.42839 164.966 7.21484C165.081 7.0013 165.138 6.74479 165.138 6.44531C165.138 6.14323 165.079 5.88151 164.962 5.66016C164.848 5.4388 164.667 5.26953 164.419 5.15234C164.174 5.03255 163.853 4.97266 163.454 4.97266H161.939V11.9375H160.732ZM164.681 8.32812L166.657 11.9375H165.282L163.345 8.32812H164.681ZM169.597 11.9375H168.316L171.195 3.9375H172.589L175.468 11.9375H174.187L171.925 5.39062H171.863L169.597 11.9375ZM169.812 8.80469H173.968V9.82031H169.812V8.80469ZM183.992 6.53906H182.773C182.727 6.27865 182.639 6.04948 182.512 5.85156C182.384 5.65365 182.228 5.48568 182.043 5.34766C181.858 5.20964 181.651 5.10547 181.422 5.03516C181.195 4.96484 180.954 4.92969 180.699 4.92969C180.238 4.92969 179.826 5.04557 179.461 5.27734C179.099 5.50911 178.813 5.84896 178.602 6.29687C178.393 6.74479 178.289 7.29167 178.289 7.9375C178.289 8.58854 178.393 9.13802 178.602 9.58594C178.813 10.0339 179.1 10.3724 179.465 10.6016C179.829 10.8307 180.24 10.9453 180.695 10.9453C180.948 10.9453 181.188 10.9115 181.414 10.8437C181.643 10.7734 181.85 10.6706 182.035 10.5352C182.22 10.3997 182.376 10.2344 182.504 10.0391C182.634 9.84115 182.724 9.61458 182.773 9.35938L183.992 9.36328C183.927 9.75651 183.801 10.1185 183.613 10.4492C183.428 10.7773 183.19 11.0612 182.898 11.3008C182.609 11.5378 182.279 11.7214 181.906 11.8516C181.534 11.9818 181.128 12.0469 180.688 12.0469C179.995 12.0469 179.378 11.8828 178.836 11.5547C178.294 11.224 177.867 10.7513 177.555 10.1367C177.245 9.52214 177.09 8.78906 177.09 7.9375C177.09 7.08333 177.246 6.35026 177.559 5.73828C177.871 5.1237 178.298 4.65234 178.84 4.32422C179.382 3.99349 179.997 3.82812 180.688 3.82812C181.112 3.82812 181.508 3.88932 181.875 4.01172C182.245 4.13151 182.577 4.30859 182.871 4.54297C183.165 4.77474 183.409 5.05859 183.602 5.39453C183.794 5.72786 183.924 6.10937 183.992 6.53906ZM186.142 4.97656V3.9375H192.333V4.97656H189.837V11.9375H188.634V4.97656H186.142ZM196.009 3.9375V11.9375H194.802V3.9375H196.009ZM199.566 3.9375L201.792 10.4531H201.882L204.109 3.9375H205.413L202.534 11.9375H201.14L198.261 3.9375H199.566ZM207.669 11.9375V3.9375H212.684V4.97656H208.876V7.41406H212.422V8.44922H208.876V10.8984H212.731V11.9375H207.669Z" fill="black"/>
<rect x="93.9531" y="12.9375" width="119.922" height="1" fill="black"/>
</svg>
