<svg width="104" height="31" viewBox="0 0 104 31" fill="none" xmlns="http://www.w3.org/2000/svg">
<path d="M1.07812 22.5V8.5L13.5781 1.5L26.0781 8.5V22.5L13.5781 29.5L1.07812 22.5Z" stroke="black"/>
<path d="M1.07812 22.5V8.5L13.5781 1.5L26.0781 8.5V22.5L13.5781 29.5L1.07812 22.5Z" fill="black"/>
<path d="M34.5962 22.5V8.68182H36.6811V14.6868H43.57V8.68182H45.6616V22.5H43.57V16.4748H36.6811V22.5H34.5962ZM48.6978 22.5V8.68182H57.3612V10.4766H50.7827V14.6868H56.9091V16.4748H50.7827V20.7053H57.4421V22.5H48.6978ZM71.2991 8.68182V22.5H69.3829L62.3591 12.3658H62.2309V22.5H60.146V8.68182H62.0757L69.1063 18.8295H69.2345V8.68182H71.2991ZM74.3404 22.5V8.68182H79.2658C80.3364 8.68182 81.2247 8.86624 81.9309 9.23508C82.6416 9.60393 83.1724 10.1145 83.5233 10.7667C83.8741 11.4144 84.0495 12.1634 84.0495 13.0135C84.0495 13.8591 83.8719 14.6036 83.5165 15.2468C83.1657 15.8855 82.6349 16.3826 81.9242 16.7379C81.218 17.0933 80.3296 17.271 79.2591 17.271H75.5279V15.4762H79.0701C79.7449 15.4762 80.2936 15.3795 80.7164 15.1861C81.1438 14.9927 81.4564 14.7115 81.6543 14.3427C81.8522 13.9738 81.9512 13.5308 81.9512 13.0135C81.9512 12.4917 81.85 12.0397 81.6476 11.6573C81.4496 11.275 81.137 10.9826 80.7097 10.7802C80.2869 10.5733 79.7314 10.4698 79.0431 10.4698H76.4252V22.5H74.3404ZM81.1618 16.2656L84.5758 22.5H82.2008L78.8542 16.2656H81.1618ZM88.6713 8.68182V22.5H86.5865V8.68182H88.6713ZM91.7076 22.5V8.68182H93.7924V15.2805H93.9611L99.7569 8.68182H102.382L96.8084 14.9027L102.402 22.5H99.8919L95.4252 16.3263L93.7924 18.2021V22.5H91.7076Z" fill="black"/>
</svg>
